<svg width="100" height="43" viewBox="0 0 100 43" fill="none" xmlns="http://www.w3.org/2000/svg">
<rect x="1" y="1" width="98" height="41" rx="4" fill="#444444"/>
<path d="M35.5043 27V16.8182H39.402C40.1378 16.8182 40.7493 16.9342 41.2365 17.1662C41.727 17.3949 42.0933 17.7081 42.3352 18.1058C42.5805 18.5036 42.7031 18.9543 42.7031 19.4581C42.7031 19.8724 42.6236 20.227 42.4645 20.522C42.3054 20.8137 42.0916 21.0507 41.8232 21.233C41.5547 21.4152 41.2547 21.5462 40.9233 21.6257V21.7251C41.2846 21.745 41.6309 21.8561 41.9624 22.0582C42.2971 22.2571 42.5705 22.5388 42.7827 22.9034C42.9948 23.268 43.1009 23.7088 43.1009 24.2259C43.1009 24.7528 42.9732 25.2268 42.718 25.6477C42.4628 26.0653 42.0784 26.3951 41.5646 26.6371C41.0509 26.879 40.4046 27 39.6257 27H35.5043ZM37.3487 25.4588H39.3324C40.0019 25.4588 40.4841 25.3312 40.7791 25.076C41.0774 24.8175 41.2266 24.486 41.2266 24.0817C41.2266 23.7801 41.152 23.5083 41.0028 23.2663C40.8537 23.0211 40.6416 22.8288 40.3665 22.6896C40.0914 22.5471 39.7633 22.4759 39.3821 22.4759H37.3487V25.4588ZM37.3487 21.1484H39.1733C39.4915 21.1484 39.7782 21.0904 40.0334 20.9744C40.2886 20.8551 40.4891 20.6877 40.6349 20.4723C40.7841 20.2536 40.8587 19.995 40.8587 19.6967C40.8587 19.3023 40.7195 18.9775 40.4411 18.7223C40.166 18.4671 39.7566 18.3395 39.2131 18.3395H37.3487V21.1484ZM44.7054 27V16.8182H51.3276V18.3643H46.5499V21.1286H50.9846V22.6747H46.5499V25.4538H51.3674V27H44.7054ZM53.2093 16.8182H55.4664L58.4892 24.196H58.6085L61.6312 16.8182H63.8883V27H62.1184V20.005H62.024L59.21 26.9702H57.8876L55.0737 19.9901H54.9792V27H53.2093V16.8182Z" fill="#B0EE20"/>
<rect x="1" y="1" width="98" height="41" rx="4" stroke="black" stroke-width="2"/>
</svg>
