<svg width="100" height="43" viewBox="0 0 100 43" fill="none" xmlns="http://www.w3.org/2000/svg">
<rect x="1" y="1" width="98" height="41" rx="4" fill="#444444"/>
<path d="M45.2195 20.2536H43.3601C43.3071 19.9486 43.2093 19.6785 43.0668 19.4432C42.9242 19.2045 42.7469 19.0024 42.5348 18.8366C42.3227 18.6709 42.0807 18.5466 41.8089 18.4638C41.5405 18.3776 41.2505 18.3345 40.9389 18.3345C40.3854 18.3345 39.8949 18.4737 39.4673 18.7521C39.0398 19.0272 38.705 19.4316 38.4631 19.9652C38.2211 20.4955 38.1001 21.1435 38.1001 21.9091C38.1001 22.688 38.2211 23.3442 38.4631 23.8778C38.7083 24.4081 39.0431 24.8092 39.4673 25.081C39.8949 25.3494 40.3838 25.4837 40.9339 25.4837C41.2389 25.4837 41.5239 25.4439 41.7891 25.3643C42.0575 25.2815 42.2978 25.1605 42.5099 25.0014C42.7254 24.8423 42.906 24.6468 43.0518 24.4148C43.201 24.1828 43.3037 23.9176 43.3601 23.6193L45.2195 23.6293C45.1499 24.1132 44.9991 24.5672 44.767 24.9915C44.5384 25.4157 44.2384 25.7902 43.8672 26.1151C43.496 26.4366 43.0618 26.6884 42.5646 26.8707C42.0675 27.0497 41.5156 27.1392 40.9091 27.1392C40.0142 27.1392 39.2154 26.9321 38.5128 26.5178C37.8101 26.1035 37.2566 25.5052 36.8523 24.723C36.4479 23.9408 36.2457 23.0028 36.2457 21.9091C36.2457 20.812 36.4496 19.8741 36.8572 19.0952C37.2649 18.313 37.8201 17.7147 38.5227 17.3004C39.2254 16.8861 40.0208 16.679 40.9091 16.679C41.4759 16.679 42.0028 16.7585 42.4901 16.9176C42.9773 17.0767 43.4115 17.3104 43.7926 17.6186C44.1738 17.9235 44.487 18.2981 44.7322 18.7422C44.9808 19.183 45.1432 19.6868 45.2195 20.2536ZM52.4419 19.6172C52.3955 19.183 52.2 18.8449 51.8553 18.603C51.5139 18.361 51.0698 18.2401 50.5229 18.2401C50.1384 18.2401 49.8087 18.2981 49.5336 18.4141C49.2585 18.5301 49.048 18.6875 48.9022 18.8864C48.7563 19.0852 48.6818 19.3123 48.6784 19.5675C48.6784 19.7796 48.7265 19.9635 48.8226 20.1193C48.9221 20.2751 49.0563 20.4077 49.2253 20.517C49.3944 20.6231 49.5816 20.7126 49.7871 20.7855C49.9926 20.8584 50.1998 20.9197 50.4086 20.9695L51.3631 21.2081C51.7476 21.2976 52.1171 21.4186 52.4718 21.571C52.8297 21.7235 53.1496 21.9157 53.4313 22.1477C53.7163 22.3797 53.9417 22.6598 54.1074 22.9879C54.2731 23.3161 54.356 23.7005 54.356 24.1413C54.356 24.7379 54.2035 25.2633 53.8986 25.7173C53.5937 26.1681 53.1529 26.5211 52.5762 26.7763C52.0028 27.0282 51.3084 27.1541 50.4931 27.1541C49.7009 27.1541 49.0132 27.0315 48.4299 26.7862C47.8498 26.541 47.3958 26.183 47.0676 25.7124C46.7428 25.2417 46.5672 24.6683 46.5407 23.9922H48.3553C48.3818 24.3468 48.4912 24.6418 48.6834 24.8771C48.8757 25.1125 49.1259 25.2881 49.4341 25.4041C49.7457 25.5201 50.0937 25.5781 50.4782 25.5781C50.8792 25.5781 51.2305 25.5185 51.5321 25.3991C51.8371 25.2765 52.0757 25.1075 52.248 24.892C52.4204 24.6733 52.5082 24.4181 52.5115 24.1264C52.5082 23.8613 52.4303 23.6425 52.2779 23.4702C52.1254 23.2945 51.9116 23.1487 51.6365 23.0327C51.3648 22.9134 51.0466 22.8073 50.682 22.7145L49.5236 22.4162C48.6851 22.2008 48.0222 21.8743 47.535 21.4368C47.0511 20.996 46.8091 20.411 46.8091 19.6818C46.8091 19.0819 46.9715 18.5566 47.2963 18.1058C47.6245 17.6551 48.0703 17.3054 48.6337 17.0568C49.1971 16.8049 49.8352 16.679 50.5478 16.679C51.2703 16.679 51.9034 16.8049 52.4469 17.0568C52.9938 17.3054 53.423 17.6518 53.7346 18.0959C54.0461 18.5367 54.2069 19.0438 54.2168 19.6172H52.4419ZM61.5337 19.6172C61.4873 19.183 61.2918 18.8449 60.9471 18.603C60.6057 18.361 60.1616 18.2401 59.6147 18.2401C59.2302 18.2401 58.9005 18.2981 58.6254 18.4141C58.3503 18.5301 58.1398 18.6875 57.994 18.8864C57.8481 19.0852 57.7736 19.3123 57.7702 19.5675C57.7702 19.7796 57.8183 19.9635 57.9144 20.1193C58.0138 20.2751 58.1481 20.4077 58.3171 20.517C58.4862 20.6231 58.6734 20.7126 58.8789 20.7855C59.0844 20.8584 59.2915 20.9197 59.5004 20.9695L60.4549 21.2081C60.8394 21.2976 61.2089 21.4186 61.5636 21.571C61.9215 21.7235 62.2414 21.9157 62.5231 22.1477C62.8081 22.3797 63.0335 22.6598 63.1992 22.9879C63.3649 23.3161 63.4478 23.7005 63.4478 24.1413C63.4478 24.7379 63.2953 25.2633 62.9904 25.7173C62.6855 26.1681 62.2447 26.5211 61.668 26.7763C61.0946 27.0282 60.4002 27.1541 59.5849 27.1541C58.7927 27.1541 58.105 27.0315 57.5217 26.7862C56.9416 26.541 56.4876 26.183 56.1594 25.7124C55.8346 25.2417 55.659 24.6683 55.6325 23.9922H57.4471C57.4736 24.3468 57.583 24.6418 57.7752 24.8771C57.9674 25.1125 58.2177 25.2881 58.5259 25.4041C58.8375 25.5201 59.1855 25.5781 59.57 25.5781C59.971 25.5781 60.3223 25.5185 60.6239 25.3991C60.9289 25.2765 61.1675 25.1075 61.3398 24.892C61.5122 24.6733 61.6 24.4181 61.6033 24.1264C61.6 23.8613 61.5221 23.6425 61.3697 23.4702C61.2172 23.2945 61.0034 23.1487 60.7283 23.0327C60.4566 22.9134 60.1384 22.8073 59.7738 22.7145L58.6154 22.4162C57.7769 22.2008 57.114 21.8743 56.6268 21.4368C56.1429 20.996 55.9009 20.411 55.9009 19.6818C55.9009 19.0819 56.0633 18.5566 56.3881 18.1058C56.7163 17.6551 57.1621 17.3054 57.7255 17.0568C58.2889 16.8049 58.927 16.679 59.6396 16.679C60.3621 16.679 60.9951 16.8049 61.5387 17.0568C62.0856 17.3054 62.5148 17.6518 62.8263 18.0959C63.1379 18.5367 63.2987 19.0438 63.3086 19.6172H61.5337Z" fill="#B0EE20"/>
<rect x="1" y="1" width="98" height="41" rx="4" stroke="black" stroke-width="2"/>
</svg>
