<svg width="100" height="43" viewBox="0 0 100 43" fill="none" xmlns="http://www.w3.org/2000/svg">
<rect x="1" y="1" width="98" height="41" rx="4" fill="#444444"/>
<path d="M28.0043 27V16.8182H34.527V18.3643H29.8487V21.1286H34.0795V22.6747H29.8487V27H28.0043ZM38.0518 16.8182V27H36.2074V16.8182H38.0518ZM46.8702 20.0696C46.7873 19.8011 46.673 19.5608 46.5272 19.3487C46.3846 19.1333 46.2123 18.9493 46.0101 18.7969C45.8113 18.6444 45.5826 18.5301 45.324 18.4538C45.0655 18.3743 44.7838 18.3345 44.4789 18.3345C43.932 18.3345 43.4448 18.4721 43.0172 18.7472C42.5897 19.0223 42.2533 19.4266 42.008 19.9602C41.766 20.4905 41.6451 21.1368 41.6451 21.8991C41.6451 22.6681 41.766 23.3194 42.008 23.853C42.2499 24.3866 42.5864 24.7926 43.0172 25.071C43.4481 25.3461 43.9486 25.4837 44.5186 25.4837C45.0357 25.4837 45.4831 25.3842 45.861 25.1854C46.2421 24.9865 46.5355 24.7048 46.7409 24.3402C46.9464 23.9723 47.0492 23.5414 47.0492 23.0476L47.4668 23.1122H44.7026V21.6705H48.834V22.8935C48.834 23.7652 48.6484 24.5192 48.2772 25.1555C47.906 25.7919 47.3955 26.2824 46.7459 26.6271C46.0963 26.9685 45.3506 27.1392 44.5087 27.1392C43.5707 27.1392 42.7471 26.9287 42.0378 26.5078C41.3319 26.0836 40.78 25.482 40.3823 24.7031C39.9879 23.9209 39.7907 22.9929 39.7907 21.919C39.7907 21.0971 39.9067 20.3629 40.1387 19.7166C40.374 19.0703 40.7021 18.5218 41.123 18.071C41.544 17.617 42.0378 17.2723 42.6046 17.0369C43.1713 16.7983 43.7878 16.679 44.454 16.679C45.0175 16.679 45.5428 16.7618 46.03 16.9276C46.5172 17.09 46.9498 17.322 47.3276 17.6236C47.7087 17.9252 48.022 18.2831 48.2672 18.6974C48.5125 19.1117 48.6732 19.5691 48.7495 20.0696H46.8702ZM50.6175 16.8182H52.8746L55.8974 24.196H56.0167L59.0394 16.8182H61.2965V27H59.5266V20.005H59.4322L56.6183 26.9702H55.2958L52.4819 19.9901H52.3874V27H50.6175V16.8182ZM64.6126 27H62.6438L66.2283 16.8182H68.5053L72.0948 27H70.1261L67.4066 18.9062H67.3271L64.6126 27ZM64.6772 23.0078H70.0465V24.4893H64.6772V23.0078Z" fill="#B0EE20"/>
<rect x="1" y="1" width="98" height="41" rx="4" stroke="black" stroke-width="2"/>
</svg>
