<svg width="100" height="43" viewBox="0 0 100 43" fill="none" xmlns="http://www.w3.org/2000/svg">
<rect x="1" y="1" width="98" height="41" rx="4" fill="#444444"/>
<path d="M19.0043 27V16.8182H25.527V18.3643H20.8487V21.1286H25.0795V22.6747H20.8487V27H19.0043ZM27.2074 27V16.8182H29.0518V25.4538H33.5362V27H27.2074ZM35.1371 27V16.8182H41.7592V18.3643H36.9815V21.1286H41.4162V22.6747H36.9815V25.4538H41.799V27H35.1371ZM45.1822 16.8182L47.4244 20.5469H47.5039L49.756 16.8182H51.859L48.7219 21.9091L51.9087 27H49.771L47.5039 23.2962H47.4244L45.1573 27H43.0295L46.2461 21.9091L43.0692 16.8182H45.1822ZM53.307 27V16.8182H57.2047C57.9405 16.8182 58.552 16.9342 59.0392 17.1662C59.5298 17.3949 59.896 17.7081 60.138 18.1058C60.3832 18.5036 60.5059 18.9543 60.5059 19.4581C60.5059 19.8724 60.4263 20.227 60.2672 20.522C60.1081 20.8137 59.8944 21.0507 59.6259 21.233C59.3574 21.4152 59.0575 21.5462 58.726 21.6257V21.7251C59.0873 21.745 59.4337 21.8561 59.7651 22.0582C60.0998 22.2571 60.3733 22.5388 60.5854 22.9034C60.7975 23.268 60.9036 23.7088 60.9036 24.2259C60.9036 24.7528 60.776 25.2268 60.5208 25.6477C60.2656 26.0653 59.8811 26.3951 59.3674 26.6371C58.8536 26.879 58.2073 27 57.4284 27H53.307ZM55.1515 25.4588H57.1351C57.8046 25.4588 58.2869 25.3312 58.5819 25.076C58.8801 24.8175 59.0293 24.486 59.0293 24.0817C59.0293 23.7801 58.9547 23.5083 58.8056 23.2663C58.6564 23.0211 58.4443 22.8288 58.1692 22.6896C57.8941 22.5471 57.566 22.4759 57.1848 22.4759H55.1515V25.4588ZM55.1515 21.1484H56.976C57.2942 21.1484 57.5809 21.0904 57.8361 20.9744C58.0913 20.8551 58.2918 20.6877 58.4377 20.4723C58.5868 20.2536 58.6614 19.995 58.6614 19.6967C58.6614 19.3023 58.5222 18.9775 58.2438 18.7223C57.9687 18.4671 57.5594 18.3395 57.0158 18.3395H55.1515V21.1484ZM71.6062 21.9091C71.6062 23.0062 71.4007 23.9458 70.9897 24.728C70.582 25.5069 70.0252 26.1035 69.3192 26.5178C68.6166 26.9321 67.8195 27.1392 66.9279 27.1392C66.0363 27.1392 65.2376 26.9321 64.5316 26.5178C63.829 26.1001 63.2721 25.5019 62.8612 24.723C62.4535 23.9408 62.2496 23.0028 62.2496 21.9091C62.2496 20.812 62.4535 19.8741 62.8612 19.0952C63.2721 18.313 63.829 17.7147 64.5316 17.3004C65.2376 16.8861 66.0363 16.679 66.9279 16.679C67.8195 16.679 68.6166 16.8861 69.3192 17.3004C70.0252 17.7147 70.582 18.313 70.9897 19.0952C71.4007 19.8741 71.6062 20.812 71.6062 21.9091ZM69.7518 21.9091C69.7518 21.1368 69.6308 20.4856 69.3888 19.9553C69.1502 19.4216 68.8188 19.0189 68.3945 18.7472C67.9703 18.4721 67.4814 18.3345 66.9279 18.3345C66.3744 18.3345 65.8855 18.4721 65.4613 18.7472C65.0371 19.0189 64.704 19.4216 64.462 19.9553C64.2234 20.4856 64.104 21.1368 64.104 21.9091C64.104 22.6813 64.2234 23.3343 64.462 23.8679C64.704 24.3982 65.0371 24.8009 65.4613 25.076C65.8855 25.3478 66.3744 25.4837 66.9279 25.4837C67.4814 25.4837 67.9703 25.3478 68.3945 25.076C68.8188 24.8009 69.1502 24.3982 69.3888 23.8679C69.6308 23.3343 69.7518 22.6813 69.7518 21.9091ZM74.522 16.8182L76.7642 20.5469H76.8438L79.0959 16.8182H81.1989L78.0618 21.9091L81.2486 27H79.1108L76.8438 23.2962H76.7642L74.4972 27H72.3693L75.5859 21.9091L72.4091 16.8182H74.522Z" fill="#B0EE20"/>
<rect x="1" y="1" width="98" height="41" rx="4" stroke="black" stroke-width="2"/>
</svg>
