<svg width="100" height="43" viewBox="0 0 100 43" fill="none" xmlns="http://www.w3.org/2000/svg">
<rect x="1" y="1" width="98" height="41" rx="4" fill="#444444"/>
<path d="M26.7195 20.2536H24.8601C24.8071 19.9486 24.7093 19.6785 24.5668 19.4432C24.4242 19.2045 24.2469 19.0024 24.0348 18.8366C23.8227 18.6709 23.5807 18.5466 23.3089 18.4638C23.0405 18.3776 22.7505 18.3345 22.4389 18.3345C21.8854 18.3345 21.3949 18.4737 20.9673 18.7521C20.5398 19.0272 20.205 19.4316 19.9631 19.9652C19.7211 20.4955 19.6001 21.1435 19.6001 21.9091C19.6001 22.688 19.7211 23.3442 19.9631 23.8778C20.2083 24.4081 20.5431 24.8092 20.9673 25.081C21.3949 25.3494 21.8838 25.4837 22.4339 25.4837C22.7389 25.4837 23.0239 25.4439 23.2891 25.3643C23.5575 25.2815 23.7978 25.1605 24.0099 25.0014C24.2254 24.8423 24.406 24.6468 24.5518 24.4148C24.701 24.1828 24.8037 23.9176 24.8601 23.6193L26.7195 23.6293C26.6499 24.1132 26.4991 24.5672 26.267 24.9915C26.0384 25.4157 25.7384 25.7902 25.3672 26.1151C24.996 26.4366 24.5618 26.6884 24.0646 26.8707C23.5675 27.0497 23.0156 27.1392 22.4091 27.1392C21.5142 27.1392 20.7154 26.9321 20.0128 26.5178C19.3101 26.1035 18.7566 25.5052 18.3523 24.723C17.9479 23.9408 17.7457 23.0028 17.7457 21.9091C17.7457 20.812 17.9496 19.8741 18.3572 19.0952C18.7649 18.313 19.3201 17.7147 20.0227 17.3004C20.7254 16.8861 21.5208 16.679 22.4091 16.679C22.9759 16.679 23.5028 16.7585 23.9901 16.9176C24.4773 17.0767 24.9115 17.3104 25.2926 17.6186C25.6738 17.9235 25.987 18.2981 26.2322 18.7422C26.4808 19.183 26.6432 19.6868 26.7195 20.2536ZM33.9419 19.6172C33.8955 19.183 33.7 18.8449 33.3553 18.603C33.0139 18.361 32.5698 18.2401 32.0229 18.2401C31.6384 18.2401 31.3087 18.2981 31.0336 18.4141C30.7585 18.5301 30.548 18.6875 30.4022 18.8864C30.2563 19.0852 30.1818 19.3123 30.1784 19.5675C30.1784 19.7796 30.2265 19.9635 30.3226 20.1193C30.4221 20.2751 30.5563 20.4077 30.7253 20.517C30.8944 20.6231 31.0816 20.7126 31.2871 20.7855C31.4926 20.8584 31.6998 20.9197 31.9086 20.9695L32.8631 21.2081C33.2476 21.2976 33.6171 21.4186 33.9718 21.571C34.3297 21.7235 34.6496 21.9157 34.9313 22.1477C35.2163 22.3797 35.4417 22.6598 35.6074 22.9879C35.7731 23.3161 35.856 23.7005 35.856 24.1413C35.856 24.7379 35.7035 25.2633 35.3986 25.7173C35.0937 26.1681 34.6529 26.5211 34.0762 26.7763C33.5028 27.0282 32.8084 27.1541 31.9931 27.1541C31.2009 27.1541 30.5132 27.0315 29.9299 26.7862C29.3498 26.541 28.8958 26.183 28.5676 25.7124C28.2428 25.2417 28.0672 24.6683 28.0407 23.9922H29.8553C29.8818 24.3468 29.9912 24.6418 30.1834 24.8771C30.3757 25.1125 30.6259 25.2881 30.9341 25.4041C31.2457 25.5201 31.5937 25.5781 31.9782 25.5781C32.3792 25.5781 32.7305 25.5185 33.0321 25.3991C33.3371 25.2765 33.5757 25.1075 33.748 24.892C33.9204 24.6733 34.0082 24.4181 34.0115 24.1264C34.0082 23.8613 33.9303 23.6425 33.7779 23.4702C33.6254 23.2945 33.4116 23.1487 33.1365 23.0327C32.8648 22.9134 32.5466 22.8073 32.182 22.7145L31.0236 22.4162C30.1851 22.2008 29.5222 21.8743 29.035 21.4368C28.5511 20.996 28.3091 20.411 28.3091 19.6818C28.3091 19.0819 28.4715 18.5566 28.7963 18.1058C29.1245 17.6551 29.5703 17.3054 30.1337 17.0568C30.6971 16.8049 31.3352 16.679 32.0478 16.679C32.7703 16.679 33.4034 16.8049 33.9469 17.0568C34.4938 17.3054 34.923 17.6518 35.2346 18.0959C35.5461 18.5367 35.7069 19.0438 35.7168 19.6172H33.9419ZM43.0337 19.6172C42.9873 19.183 42.7918 18.8449 42.4471 18.603C42.1057 18.361 41.6616 18.2401 41.1147 18.2401C40.7302 18.2401 40.4005 18.2981 40.1254 18.4141C39.8503 18.5301 39.6398 18.6875 39.494 18.8864C39.3481 19.0852 39.2736 19.3123 39.2702 19.5675C39.2702 19.7796 39.3183 19.9635 39.4144 20.1193C39.5138 20.2751 39.6481 20.4077 39.8171 20.517C39.9862 20.6231 40.1734 20.7126 40.3789 20.7855C40.5844 20.8584 40.7915 20.9197 41.0004 20.9695L41.9549 21.2081C42.3394 21.2976 42.7089 21.4186 43.0636 21.571C43.4215 21.7235 43.7414 21.9157 44.0231 22.1477C44.3081 22.3797 44.5335 22.6598 44.6992 22.9879C44.8649 23.3161 44.9478 23.7005 44.9478 24.1413C44.9478 24.7379 44.7953 25.2633 44.4904 25.7173C44.1855 26.1681 43.7447 26.5211 43.168 26.7763C42.5946 27.0282 41.9002 27.1541 41.0849 27.1541C40.2927 27.1541 39.605 27.0315 39.0217 26.7862C38.4416 26.541 37.9876 26.183 37.6594 25.7124C37.3346 25.2417 37.159 24.6683 37.1325 23.9922H38.9471C38.9736 24.3468 39.083 24.6418 39.2752 24.8771C39.4674 25.1125 39.7177 25.2881 40.0259 25.4041C40.3375 25.5201 40.6855 25.5781 41.07 25.5781C41.471 25.5781 41.8223 25.5185 42.1239 25.3991C42.4289 25.2765 42.6675 25.1075 42.8398 24.892C43.0122 24.6733 43.1 24.4181 43.1033 24.1264C43.1 23.8613 43.0221 23.6425 42.8697 23.4702C42.7172 23.2945 42.5034 23.1487 42.2283 23.0327C41.9566 22.9134 41.6384 22.8073 41.2738 22.7145L40.1154 22.4162C39.2769 22.2008 38.614 21.8743 38.1268 21.4368C37.6429 20.996 37.4009 20.411 37.4009 19.6818C37.4009 19.0819 37.5633 18.5566 37.8881 18.1058C38.2163 17.6551 38.6621 17.3054 39.2255 17.0568C39.7889 16.8049 40.427 16.679 41.1396 16.679C41.8621 16.679 42.4951 16.8049 43.0387 17.0568C43.5856 17.3054 44.0148 17.6518 44.3263 18.0959C44.6379 18.5367 44.7987 19.0438 44.8086 19.6172H43.0337ZM56.8858 20.0696C56.803 19.8011 56.6886 19.5608 56.5428 19.3487C56.4003 19.1333 56.2279 18.9493 56.0257 18.7969C55.8269 18.6444 55.5982 18.5301 55.3397 18.4538C55.0811 18.3743 54.7994 18.3345 54.4945 18.3345C53.9476 18.3345 53.4604 18.4721 53.0328 18.7472C52.6053 19.0223 52.2689 19.4266 52.0236 19.9602C51.7817 20.4905 51.6607 21.1368 51.6607 21.8991C51.6607 22.6681 51.7817 23.3194 52.0236 23.853C52.2656 24.3866 52.602 24.7926 53.0328 25.071C53.4637 25.3461 53.9642 25.4837 54.5343 25.4837C55.0513 25.4837 55.4988 25.3842 55.8766 25.1854C56.2578 24.9865 56.5511 24.7048 56.7566 24.3402C56.9621 23.9723 57.0648 23.5414 57.0648 23.0476L57.4824 23.1122H54.7182V21.6705H58.8496V22.8935C58.8496 23.7652 58.664 24.5192 58.2928 25.1555C57.9216 25.7919 57.4112 26.2824 56.7615 26.6271C56.1119 26.9685 55.3662 27.1392 54.5243 27.1392C53.5864 27.1392 52.7627 26.9287 52.0534 26.5078C51.3475 26.0836 50.7956 25.482 50.3979 24.7031C50.0035 23.9209 49.8063 22.9929 49.8063 21.919C49.8063 21.0971 49.9223 20.3629 50.1543 19.7166C50.3896 19.0703 50.7177 18.5218 51.1387 18.071C51.5596 17.617 52.0534 17.2723 52.6202 17.0369C53.187 16.7983 53.8034 16.679 54.4696 16.679C55.0331 16.679 55.5584 16.7618 56.0456 16.9276C56.5328 17.09 56.9654 17.322 57.3432 17.6236C57.7244 17.9252 58.0376 18.2831 58.2828 18.6974C58.5281 19.1117 58.6889 19.5691 58.7651 20.0696H56.8858ZM60.6332 27V16.8182H64.4513C65.2335 16.8182 65.8898 16.9541 66.4201 17.2259C66.9537 17.4976 67.3564 17.8788 67.6282 18.3693C67.9033 18.8565 68.0408 19.425 68.0408 20.0746C68.0408 20.7275 67.9016 21.2943 67.6232 21.7749C67.3481 22.2521 66.9421 22.6217 66.4052 22.8835C65.8683 23.142 65.2087 23.2713 64.4265 23.2713H61.707V21.7401H64.1779C64.6353 21.7401 65.0098 21.6771 65.3015 21.5511C65.5932 21.4219 65.8086 21.2346 65.9478 20.9893C66.0903 20.7408 66.1616 20.4358 66.1616 20.0746C66.1616 19.7133 66.0903 19.4051 65.9478 19.1499C65.8053 18.8913 65.5882 18.6958 65.2965 18.5632C65.0049 18.4273 64.6287 18.3594 64.168 18.3594H62.4776V27H60.6332ZM65.8931 22.3864L68.4137 27H66.3555L63.8796 22.3864H65.8931ZM71.5831 16.8182V27H69.7386V16.8182H71.5831ZM77.0307 27H73.5804V16.8182H77.1003C78.1112 16.8182 78.9796 17.022 79.7054 17.4297C80.4346 17.834 80.9947 18.4157 81.3858 19.1747C81.7769 19.9337 81.9725 20.8419 81.9725 21.8991C81.9725 22.9598 81.7753 23.8712 81.3809 24.6335C80.9898 25.3958 80.4247 25.9808 79.6855 26.3885C78.9498 26.7962 78.0648 27 77.0307 27ZM75.4249 25.4041H76.9412C77.6505 25.4041 78.2421 25.2749 78.7161 25.0163C79.19 24.7545 79.5463 24.3651 79.785 23.848C80.0236 23.3277 80.1429 22.678 80.1429 21.8991C80.1429 21.1203 80.0236 20.474 79.785 19.9602C79.5463 19.4432 79.1934 19.0571 78.726 18.8018C78.262 18.5433 77.6853 18.4141 76.9959 18.4141H75.4249V25.4041Z" fill="#B0EE20"/>
<rect x="1" y="1" width="98" height="41" rx="4" stroke="black" stroke-width="2"/>
</svg>
