<svg width="100" height="43" viewBox="0 0 100 43" fill="none" xmlns="http://www.w3.org/2000/svg">
<rect x="1" y="1" width="98" height="41" rx="4" fill="#444444"/>
<path d="M30.5043 27V16.8182H32.3487V21.1286H37.0668V16.8182H38.9162V27H37.0668V22.6747H32.3487V27H30.5043ZM40.4748 18.3643V16.8182H48.5984V18.3643H45.4513V27H43.6218V18.3643H40.4748ZM50.1644 16.8182H52.4215L55.4442 24.196H55.5636L58.5863 16.8182H60.8434V27H59.0735V20.005H58.979L56.1651 26.9702H54.8427L52.0288 19.9901H51.9343V27H50.1644V16.8182ZM62.8519 27V16.8182H64.6964V25.4538H69.1808V27H62.8519Z" fill="#B0EE20"/>
<rect x="1" y="1" width="98" height="41" rx="4" stroke="black" stroke-width="2"/>
</svg>
