<svg width="151" height="43" viewBox="0 0 151 43" fill="none" xmlns="http://www.w3.org/2000/svg">
<rect x="1" y="1" width="149" height="41" rx="4" fill="#444444"/>
<path d="M22.0043 16.8182H24.2614L27.2841 24.196H27.4034L30.4261 16.8182H32.6832V27H30.9134V20.005H30.8189L28.005 26.9702H26.6825L23.8686 19.9901H23.7741V27H22.0043V16.8182ZM34.6918 27V16.8182H41.3139V18.3643H36.5362V21.1286H40.9709V22.6747H36.5362V25.4538H41.3537V27H34.6918ZM46.646 27H43.1957V16.8182H46.7156C47.7264 16.8182 48.5948 17.022 49.3207 17.4297C50.0498 17.834 50.61 18.4157 51.0011 19.1747C51.3922 19.9337 51.5877 20.8419 51.5877 21.8991C51.5877 22.9598 51.3905 23.8712 50.9961 24.6335C50.605 25.3958 50.0399 25.9808 49.3008 26.3885C48.565 26.7962 47.68 27 46.646 27ZM45.0401 25.4041H46.5565C47.2657 25.4041 47.8574 25.2749 48.3313 25.0163C48.8053 24.7545 49.1616 24.3651 49.4002 23.848C49.6389 23.3277 49.7582 22.678 49.7582 21.8991C49.7582 21.1203 49.6389 20.474 49.4002 19.9602C49.1616 19.4432 48.8086 19.0571 48.3413 18.8018C47.8772 18.5433 47.3005 18.4141 46.6112 18.4141H45.0401V25.4041ZM55.1847 16.8182V27H53.3402V16.8182H55.1847ZM58.4895 27H56.5208L60.1053 16.8182H62.3823L65.9718 27H64.003L61.2836 18.9062H61.204L58.4895 27ZM58.5542 23.0078H63.9235V24.4893H58.5542V23.0078ZM74.5788 23.5795H76.2493L77.2386 24.8622L77.9446 25.6974L79.6399 27.875H77.8501L76.6967 26.4134L76.2045 25.7173L74.5788 23.5795ZM79.8835 21.9091C79.8835 23.0062 79.678 23.9458 79.267 24.728C78.8594 25.5069 78.3026 26.1035 77.5966 26.5178C76.8939 26.9321 76.0968 27.1392 75.2053 27.1392C74.3137 27.1392 73.5149 26.9321 72.8089 26.5178C72.1063 26.1001 71.5495 25.5019 71.1385 24.723C70.7308 23.9408 70.527 23.0028 70.527 21.9091C70.527 20.812 70.7308 19.8741 71.1385 19.0952C71.5495 18.313 72.1063 17.7147 72.8089 17.3004C73.5149 16.8861 74.3137 16.679 75.2053 16.679C76.0968 16.679 76.8939 16.8861 77.5966 17.3004C78.3026 17.7147 78.8594 18.313 79.267 19.0952C79.678 19.8741 79.8835 20.812 79.8835 21.9091ZM78.0291 21.9091C78.0291 21.1368 77.9081 20.4856 77.6662 19.9553C77.4276 19.4216 77.0961 19.0189 76.6719 18.7472C76.2476 18.4721 75.7588 18.3345 75.2053 18.3345C74.6518 18.3345 74.1629 18.4721 73.7386 18.7472C73.3144 19.0189 72.9813 19.4216 72.7393 19.9553C72.5007 20.4856 72.3814 21.1368 72.3814 21.9091C72.3814 22.6813 72.5007 23.3343 72.7393 23.8679C72.9813 24.3982 73.3144 24.8009 73.7386 25.076C74.1629 25.3478 74.6518 25.4837 75.2053 25.4837C75.7588 25.4837 76.2476 25.3478 76.6719 25.076C77.0961 24.8009 77.4276 24.3982 77.6662 23.8679C77.9081 23.3343 78.0291 22.6813 78.0291 21.9091ZM88.0593 16.8182H89.9038V23.4702C89.9038 24.1993 89.7314 24.8407 89.3867 25.3942C89.0453 25.9477 88.5647 26.3802 87.945 26.6918C87.3252 27 86.601 27.1541 85.7724 27.1541C84.9405 27.1541 84.2146 27 83.5948 26.6918C82.975 26.3802 82.4944 25.9477 82.1531 25.3942C81.8117 24.8407 81.641 24.1993 81.641 23.4702V16.8182H83.4854V23.3161C83.4854 23.7403 83.5782 24.1181 83.7638 24.4496C83.9528 24.781 84.2179 25.0412 84.5593 25.2301C84.9007 25.4157 85.305 25.5085 85.7724 25.5085C86.2397 25.5085 86.6441 25.4157 86.9854 25.2301C87.3301 25.0412 87.5953 24.781 87.7809 24.4496C87.9665 24.1181 88.0593 23.7403 88.0593 23.3161V16.8182ZM91.9086 27V16.8182H98.5307V18.3643H93.753V21.1286H98.1877V22.6747H93.753V25.4538H98.5705V27H91.9086ZM100.412 27V16.8182H104.231C105.013 16.8182 105.669 16.9541 106.199 17.2259C106.733 17.4976 107.136 17.8788 107.407 18.3693C107.683 18.8565 107.82 19.425 107.82 20.0746C107.82 20.7275 107.681 21.2943 107.403 21.7749C107.127 22.2521 106.721 22.6217 106.184 22.8835C105.648 23.142 104.988 23.2713 104.206 23.2713H101.486V21.7401H103.957C104.415 21.7401 104.789 21.6771 105.081 21.5511C105.372 21.4219 105.588 21.2346 105.727 20.9893C105.87 20.7408 105.941 20.4358 105.941 20.0746C105.941 19.7133 105.87 19.4051 105.727 19.1499C105.585 18.8913 105.367 18.6958 105.076 18.5632C104.784 18.4273 104.408 18.3594 103.947 18.3594H102.257V27H100.412ZM105.672 22.3864L108.193 27H106.135L103.659 22.3864H105.672ZM111.362 16.8182V27H109.518V16.8182H111.362ZM113.36 27V16.8182H119.982V18.3643H115.204V21.1286H119.639V22.6747H115.204V25.4538H120.022V27H113.36ZM127.397 19.6172C127.351 19.183 127.155 18.8449 126.81 18.603C126.469 18.361 126.025 18.2401 125.478 18.2401C125.094 18.2401 124.764 18.2981 124.489 18.4141C124.214 18.5301 124.003 18.6875 123.857 18.8864C123.711 19.0852 123.637 19.3123 123.634 19.5675C123.634 19.7796 123.682 19.9635 123.778 20.1193C123.877 20.2751 124.011 20.4077 124.18 20.517C124.349 20.6231 124.537 20.7126 124.742 20.7855C124.948 20.8584 125.155 20.9197 125.364 20.9695L126.318 21.2081C126.703 21.2976 127.072 21.4186 127.427 21.571C127.785 21.7235 128.105 21.9157 128.386 22.1477C128.671 22.3797 128.897 22.6598 129.062 22.9879C129.228 23.3161 129.311 23.7005 129.311 24.1413C129.311 24.7379 129.159 25.2633 128.854 25.7173C128.549 26.1681 128.108 26.5211 127.531 26.7763C126.958 27.0282 126.263 27.1541 125.448 27.1541C124.656 27.1541 123.968 27.0315 123.385 26.7862C122.805 26.541 122.351 26.183 122.023 25.7124C121.698 25.2417 121.522 24.6683 121.496 23.9922H123.31C123.337 24.3468 123.446 24.6418 123.638 24.8771C123.831 25.1125 124.081 25.2881 124.389 25.4041C124.701 25.5201 125.049 25.5781 125.433 25.5781C125.834 25.5781 126.186 25.5185 126.487 25.3991C126.792 25.2765 127.031 25.1075 127.203 24.892C127.375 24.6733 127.463 24.4181 127.467 24.1264C127.463 23.8613 127.385 23.6425 127.233 23.4702C127.08 23.2945 126.867 23.1487 126.592 23.0327C126.32 22.9134 126.002 22.8073 125.637 22.7145L124.479 22.4162C123.64 22.2008 122.977 21.8743 122.49 21.4368C122.006 20.996 121.764 20.411 121.764 19.6818C121.764 19.0819 121.927 18.5566 122.251 18.1058C122.58 17.6551 123.025 17.3054 123.589 17.0568C124.152 16.8049 124.79 16.679 125.503 16.679C126.225 16.679 126.858 16.8049 127.402 17.0568C127.949 17.3054 128.378 17.6518 128.69 18.0959C129.001 18.5367 129.162 19.0438 129.172 19.6172H127.397Z" fill="#B0EE20"/>
<rect x="1" y="1" width="149" height="41" rx="4" stroke="black" stroke-width="2"/>
</svg>
