<svg width="200" height="37" viewBox="0 0 200 37" fill="none" xmlns="http://www.w3.org/2000/svg">
<rect x="1" y="1" width="198" height="35" rx="4" fill="#444444"/>
<path d="M24.9013 13.8182V24H23.0419L18.6122 17.5916H18.5376V24H16.3849V13.8182H18.2741L22.669 20.2216H22.7585V13.8182H24.9013ZM26.6401 24V16.3636H28.758V24H26.6401ZM26.9434 15.3793L27.9973 13.1172H29.9561L28.4398 15.3793H26.9434ZM37.5739 16.3636L34.9041 24H32.5178L29.848 16.3636H32.0852L33.6712 21.8274H33.7507L35.3317 16.3636H37.5739ZM41.8917 24.1491C41.1062 24.1491 40.43 23.9901 39.8633 23.6719C39.2998 23.3504 38.8656 22.8963 38.5607 22.3097C38.2558 21.7197 38.1033 21.022 38.1033 20.2166C38.1033 19.4311 38.2558 18.7417 38.5607 18.1484C38.8656 17.5552 39.2949 17.0928 39.8484 16.7614C40.4052 16.4299 41.0581 16.2642 41.8072 16.2642C42.311 16.2642 42.7799 16.3454 43.2141 16.5078C43.6516 16.6669 44.0328 16.9072 44.3576 17.2287C44.6857 17.5502 44.9409 17.9545 45.1232 18.4418C45.3055 18.9257 45.3967 19.4924 45.3967 20.142V20.7237H38.9485V19.4112H43.4031C43.4031 19.1063 43.3368 18.8362 43.2042 18.6009C43.0716 18.3655 42.8877 18.1816 42.6523 18.049C42.4203 17.9131 42.1502 17.8452 41.842 17.8452C41.5205 17.8452 41.2354 17.9197 40.9869 18.0689C40.7416 18.2147 40.5494 18.4119 40.4102 18.6605C40.271 18.9058 40.1997 19.1792 40.1964 19.4808V20.7287C40.1964 21.1065 40.266 21.433 40.4052 21.7081C40.5477 21.9832 40.7482 22.1953 41.0067 22.3445C41.2653 22.4936 41.5719 22.5682 41.9265 22.5682C42.1618 22.5682 42.3772 22.535 42.5728 22.4688C42.7683 22.4025 42.9357 22.303 43.0749 22.1705C43.2141 22.0379 43.3202 21.8755 43.3931 21.6832L45.3519 21.8125C45.2525 22.2831 45.0487 22.6941 44.7404 23.0455C44.4355 23.3935 44.0411 23.6652 43.5572 23.8608C43.0766 24.053 42.5214 24.1491 41.8917 24.1491ZM48.8967 13.8182V24H46.7788V13.8182H48.8967ZM56.6474 24.1243C56.0674 24.1243 55.542 23.9751 55.0714 23.6768C54.604 23.3752 54.2328 22.9328 53.9577 22.3494C53.686 21.7628 53.5501 21.0436 53.5501 20.1918C53.5501 19.3168 53.6909 18.5893 53.9727 18.0092C54.2544 17.4259 54.6289 16.9901 55.0962 16.7017C55.5669 16.41 56.0823 16.2642 56.6424 16.2642C57.07 16.2642 57.4263 16.3371 57.7113 16.483C57.9996 16.6255 58.2317 16.8045 58.4073 17.0199C58.5863 17.232 58.7222 17.4408 58.815 17.6463H58.8796V13.8182H60.9925V24H58.9045V22.777H58.815C58.7156 22.9891 58.5747 23.1996 58.3924 23.4084C58.2134 23.6139 57.9798 23.7846 57.6914 23.9205C57.4064 24.0563 57.0584 24.1243 56.6474 24.1243ZM57.3185 22.4389C57.6599 22.4389 57.9483 22.3461 58.1836 22.1605C58.4222 21.9716 58.6045 21.7081 58.7305 21.37C58.8597 21.032 58.9244 20.6359 58.9244 20.1818C58.9244 19.7277 58.8614 19.3333 58.7354 18.9986C58.6095 18.6638 58.4272 18.4053 58.1886 18.223C57.9499 18.0407 57.6599 17.9496 57.3185 17.9496C56.9705 17.9496 56.6772 18.044 56.4386 18.233C56.1999 18.4219 56.0193 18.6837 55.8967 19.0185C55.774 19.3532 55.7127 19.741 55.7127 20.1818C55.7127 20.6259 55.774 21.0187 55.8967 21.3601C56.0226 21.6982 56.2032 21.9633 56.4386 22.1555C56.6772 22.3445 56.9705 22.4389 57.3185 22.4389ZM66.1841 24.1491C65.4119 24.1491 64.744 23.9851 64.1806 23.657C63.6204 23.3255 63.1879 22.8648 62.883 22.2749C62.5781 21.6816 62.4256 20.9938 62.4256 20.2116C62.4256 19.4228 62.5781 18.7334 62.883 18.1435C63.1879 17.5502 63.6204 17.0895 64.1806 16.7614C64.744 16.4299 65.4119 16.2642 66.1841 16.2642C66.9564 16.2642 67.6226 16.4299 68.1827 16.7614C68.7462 17.0895 69.1803 17.5502 69.4853 18.1435C69.7902 18.7334 69.9426 19.4228 69.9426 20.2116C69.9426 20.9938 69.7902 21.6816 69.4853 22.2749C69.1803 22.8648 68.7462 23.3255 68.1827 23.657C67.6226 23.9851 66.9564 24.1491 66.1841 24.1491ZM66.1941 22.5085C66.5454 22.5085 66.8387 22.4091 67.074 22.2102C67.3094 22.008 67.4867 21.733 67.606 21.3849C67.7286 21.0369 67.79 20.6409 67.79 20.1967C67.79 19.7526 67.7286 19.3565 67.606 19.0085C67.4867 18.6605 67.3094 18.3854 67.074 18.1832C66.8387 17.9811 66.5454 17.88 66.1941 17.88C65.8394 17.88 65.5411 17.9811 65.2992 18.1832C65.0605 18.3854 64.8799 18.6605 64.7573 19.0085C64.638 19.3565 64.5783 19.7526 64.5783 20.1967C64.5783 20.6409 64.638 21.0369 64.7573 21.3849C64.8799 21.733 65.0605 22.008 65.2992 22.2102C65.5411 22.4091 65.8394 22.5085 66.1941 22.5085ZM74.56 26.8636V16.3636H76.6481V17.6463H76.7425C76.8353 17.4408 76.9696 17.232 77.1452 17.0199C77.3242 16.8045 77.5562 16.6255 77.8413 16.483C78.1296 16.3371 78.4876 16.2642 78.9151 16.2642C79.4719 16.2642 79.9857 16.41 80.4563 16.7017C80.927 16.9901 81.3031 17.4259 81.5849 18.0092C81.8666 18.5893 82.0075 19.3168 82.0075 20.1918C82.0075 21.0436 81.8699 21.7628 81.5948 22.3494C81.323 22.9328 80.9518 23.3752 80.4812 23.6768C80.0138 23.9751 79.4902 24.1243 78.9102 24.1243C78.4992 24.1243 78.1495 24.0563 77.8612 23.9205C77.5761 23.7846 77.3424 23.6139 77.1602 23.4084C76.9779 23.1996 76.8387 22.9891 76.7425 22.777H76.6779V26.8636H74.56ZM76.6332 20.1818C76.6332 20.6359 76.6961 21.032 76.8221 21.37C76.948 21.7081 77.1303 21.9716 77.369 22.1605C77.6076 22.3461 77.8976 22.4389 78.239 22.4389C78.5837 22.4389 78.8754 22.3445 79.114 22.1555C79.3526 21.9633 79.5333 21.6982 79.6559 21.3601C79.7818 21.0187 79.8448 20.6259 79.8448 20.1818C79.8448 19.741 79.7835 19.3532 79.6609 19.0185C79.5382 18.6837 79.3576 18.4219 79.119 18.233C78.8803 18.044 78.587 17.9496 78.239 17.9496C77.8943 17.9496 77.6026 18.0407 77.364 18.223C77.1287 18.4053 76.948 18.6638 76.8221 18.9986C76.6961 19.3333 76.6332 19.7277 76.6332 20.1818ZM83.4194 24V16.3636H85.4727V17.696H85.5522C85.6914 17.2221 85.9251 16.8641 86.2532 16.6222C86.5813 16.3769 86.9592 16.2543 87.3867 16.2543C87.4928 16.2543 87.6071 16.2609 87.7298 16.2741C87.8524 16.2874 87.9601 16.3056 88.0529 16.3288V18.2081C87.9535 18.1783 87.8159 18.1518 87.6403 18.1286C87.4646 18.1054 87.3039 18.0938 87.158 18.0938C86.8465 18.0938 86.5681 18.1617 86.3228 18.2976C86.0808 18.4302 85.8886 18.6158 85.7461 18.8544C85.6069 19.093 85.5373 19.3681 85.5373 19.6797V24H83.4194ZM92.2427 24.1491C91.4705 24.1491 90.8026 23.9851 90.2392 23.657C89.679 23.3255 89.2465 22.8648 88.9416 22.2749C88.6367 21.6816 88.4842 20.9938 88.4842 20.2116C88.4842 19.4228 88.6367 18.7334 88.9416 18.1435C89.2465 17.5502 89.679 17.0895 90.2392 16.7614C90.8026 16.4299 91.4705 16.2642 92.2427 16.2642C93.015 16.2642 93.6812 16.4299 94.2413 16.7614C94.8047 17.0895 95.2389 17.5502 95.5439 18.1435C95.8488 18.7334 96.0012 19.4228 96.0012 20.2116C96.0012 20.9938 95.8488 21.6816 95.5439 22.2749C95.2389 22.8648 94.8047 23.3255 94.2413 23.657C93.6812 23.9851 93.015 24.1491 92.2427 24.1491ZM92.2527 22.5085C92.604 22.5085 92.8973 22.4091 93.1326 22.2102C93.368 22.008 93.5453 21.733 93.6646 21.3849C93.7872 21.0369 93.8485 20.6409 93.8485 20.1967C93.8485 19.7526 93.7872 19.3565 93.6646 19.0085C93.5453 18.6605 93.368 18.3854 93.1326 18.1832C92.8973 17.9811 92.604 17.88 92.2527 17.88C91.898 17.88 91.5997 17.9811 91.3578 18.1832C91.1191 18.3854 90.9385 18.6605 90.8159 19.0085C90.6966 19.3565 90.6369 19.7526 90.6369 20.1967C90.6369 20.6409 90.6966 21.0369 90.8159 21.3849C90.9385 21.733 91.1191 22.008 91.3578 22.2102C91.5997 22.4091 91.898 22.5085 92.2527 22.5085ZM97.3784 16.3636H99.4963V24.3778C99.4963 24.9678 99.3803 25.4451 99.1483 25.8097C98.9163 26.1742 98.5832 26.4411 98.149 26.6101C97.7181 26.7791 97.2027 26.8636 96.6028 26.8636C96.5299 26.8636 96.4603 26.862 96.394 26.8587C96.3244 26.8587 96.2515 26.857 96.1752 26.8537V25.1982C96.2316 25.2015 96.2813 25.2031 96.3244 25.2031C96.3642 25.2064 96.4073 25.2081 96.4537 25.2081C96.795 25.2081 97.0337 25.1352 97.1696 24.9893C97.3088 24.8468 97.3784 24.6314 97.3784 24.343V16.3636ZM98.4324 15.3793C98.1208 15.3793 97.8523 15.2749 97.627 15.0661C97.4016 14.8539 97.2889 14.6004 97.2889 14.3054C97.2889 14.0137 97.4016 13.7635 97.627 13.5547C97.8523 13.3426 98.1208 13.2365 98.4324 13.2365C98.7505 13.2365 99.0207 13.3426 99.2427 13.5547C99.4681 13.7635 99.5808 14.0137 99.5808 14.3054C99.5808 14.6004 99.4681 14.8539 99.2427 15.0661C99.0207 15.2749 98.7505 15.3793 98.4324 15.3793ZM104.673 24.1491C103.887 24.1491 103.211 23.9901 102.645 23.6719C102.081 23.3504 101.647 22.8963 101.342 22.3097C101.037 21.7197 100.885 21.022 100.885 20.2166C100.885 19.4311 101.037 18.7417 101.342 18.1484C101.647 17.5552 102.076 17.0928 102.63 16.7614C103.186 16.4299 103.839 16.2642 104.588 16.2642C105.092 16.2642 105.561 16.3454 105.995 16.5078C106.433 16.6669 106.814 16.9072 107.139 17.2287C107.467 17.5502 107.722 17.9545 107.904 18.4418C108.087 18.9257 108.178 19.4924 108.178 20.142V20.7237H101.73V19.4112H106.184C106.184 19.1063 106.118 18.8362 105.985 18.6009C105.853 18.3655 105.669 18.1816 105.434 18.049C105.202 17.9131 104.931 17.8452 104.623 17.8452C104.302 17.8452 104.017 17.9197 103.768 18.0689C103.523 18.2147 103.331 18.4119 103.191 18.6605C103.052 18.9058 102.981 19.1792 102.978 19.4808V20.7287C102.978 21.1065 103.047 21.433 103.186 21.7081C103.329 21.9832 103.529 22.1953 103.788 22.3445C104.047 22.4936 104.353 22.5682 104.708 22.5682C104.943 22.5682 105.158 22.535 105.354 22.4688C105.55 22.4025 105.717 22.303 105.856 22.1705C105.995 22.0379 106.101 21.8755 106.174 21.6832L108.133 21.8125C108.034 22.2831 107.83 22.6941 107.522 23.0455C107.217 23.3935 106.822 23.6652 106.338 23.8608C105.858 24.053 105.303 24.1491 104.673 24.1491ZM113.622 16.3636V17.9545H109.023V16.3636H113.622ZM110.067 14.5341H112.185V21.6534C112.185 21.849 112.215 22.0014 112.275 22.1108C112.334 22.2169 112.417 22.2914 112.523 22.3345C112.632 22.3776 112.758 22.3991 112.901 22.3991C113 22.3991 113.1 22.3909 113.199 22.3743C113.299 22.3544 113.375 22.3395 113.428 22.3295L113.761 23.9055C113.655 23.9387 113.506 23.9768 113.314 24.0199C113.121 24.0663 112.888 24.0945 112.613 24.1044C112.102 24.1243 111.655 24.0563 111.27 23.9006C110.889 23.7448 110.592 23.5028 110.38 23.1747C110.168 22.8466 110.064 22.4323 110.067 21.9318V14.5341ZM118.37 24.1491C117.597 24.1491 116.93 23.9851 116.366 23.657C115.806 23.3255 115.373 22.8648 115.069 22.2749C114.764 21.6816 114.611 20.9938 114.611 20.2116C114.611 19.4228 114.764 18.7334 115.069 18.1435C115.373 17.5502 115.806 17.0895 116.366 16.7614C116.93 16.4299 117.597 16.2642 118.37 16.2642C119.142 16.2642 119.808 16.4299 120.368 16.7614C120.932 17.0895 121.366 17.5502 121.671 18.1435C121.976 18.7334 122.128 19.4228 122.128 20.2116C122.128 20.9938 121.976 21.6816 121.671 22.2749C121.366 22.8648 120.932 23.3255 120.368 23.657C119.808 23.9851 119.142 24.1491 118.37 24.1491ZM118.38 22.5085C118.731 22.5085 119.024 22.4091 119.26 22.2102C119.495 22.008 119.672 21.733 119.792 21.3849C119.914 21.0369 119.975 20.6409 119.975 20.1967C119.975 19.7526 119.914 19.3565 119.792 19.0085C119.672 18.6605 119.495 18.3854 119.26 18.1832C119.024 17.9811 118.731 17.88 118.38 17.88C118.025 17.88 117.727 17.9811 117.485 18.1832C117.246 18.3854 117.065 18.6605 116.943 19.0085C116.824 19.3565 116.764 19.7526 116.764 20.1967C116.764 20.6409 116.824 21.0369 116.943 21.3849C117.065 21.733 117.246 22.008 117.485 22.2102C117.727 22.4091 118.025 22.5085 118.38 22.5085ZM124.743 24.1293C124.415 24.1293 124.133 24.0133 123.898 23.7812C123.666 23.5459 123.55 23.2642 123.55 22.9361C123.55 22.6113 123.666 22.3329 123.898 22.1009C124.133 21.8688 124.415 21.7528 124.743 21.7528C125.061 21.7528 125.34 21.8688 125.578 22.1009C125.817 22.3329 125.936 22.6113 125.936 22.9361C125.936 23.1548 125.88 23.3554 125.767 23.5376C125.658 23.7166 125.514 23.8608 125.335 23.9702C125.156 24.0762 124.959 24.1293 124.743 24.1293ZM124.743 18.7798C124.415 18.7798 124.133 18.6638 123.898 18.4318C123.666 18.1998 123.55 17.9181 123.55 17.5866C123.55 17.2618 123.666 16.9851 123.898 16.7564C124.133 16.5244 124.415 16.4084 124.743 16.4084C125.061 16.4084 125.34 16.5244 125.578 16.7564C125.817 16.9851 125.936 17.2618 125.936 17.5866C125.936 17.8087 125.88 18.0109 125.767 18.1932C125.658 18.3722 125.514 18.5147 125.335 18.6207C125.156 18.7268 124.959 18.7798 124.743 18.7798ZM135.032 13.8182H137.16V20.9176C137.16 21.5739 137.012 22.1439 136.717 22.6278C136.426 23.1117 136.02 23.4846 135.499 23.7464C134.979 24.0083 134.374 24.1392 133.685 24.1392C133.071 24.1392 132.515 24.0315 132.014 23.8161C131.517 23.5973 131.123 23.2659 130.831 22.8217C130.539 22.3743 130.395 21.8125 130.398 21.1364H132.541C132.548 21.4048 132.603 21.6352 132.705 21.8274C132.811 22.0163 132.955 22.1622 133.138 22.2649C133.323 22.3643 133.542 22.4141 133.794 22.4141C134.059 22.4141 134.283 22.3577 134.465 22.245C134.651 22.129 134.792 21.96 134.888 21.7379C134.984 21.5159 135.032 21.2424 135.032 20.9176V13.8182ZM145.229 13.8182H147.381V20.4304C147.381 21.1728 147.204 21.8224 146.849 22.3793C146.498 22.9361 146.006 23.3703 145.373 23.6818C144.74 23.9901 144.002 24.1442 143.161 24.1442C142.315 24.1442 141.576 23.9901 140.943 23.6818C140.31 23.3703 139.818 22.9361 139.467 22.3793C139.115 21.8224 138.94 21.1728 138.94 20.4304V13.8182H141.092V20.2464C141.092 20.6342 141.177 20.9789 141.346 21.2805C141.518 21.5821 141.76 21.8191 142.072 21.9915C142.383 22.1638 142.746 22.25 143.161 22.25C143.578 22.25 143.941 22.1638 144.249 21.9915C144.561 21.8191 144.801 21.5821 144.97 21.2805C145.143 20.9789 145.229 20.6342 145.229 20.2464V13.8182ZM157.669 13.8182V24H155.809L151.38 17.5916H151.305V24H149.153V13.8182H151.042L155.437 20.2216H155.526V13.8182H157.669ZM161.6 13.8182V24H159.447V13.8182H161.6ZM172.728 18.9091C172.728 20.0194 172.517 20.964 172.096 21.7429C171.679 22.5218 171.109 23.1167 170.386 23.5277C169.667 23.9354 168.858 24.1392 167.96 24.1392C167.055 24.1392 166.243 23.9337 165.524 23.5227C164.805 23.1117 164.236 22.5168 163.819 21.7379C163.401 20.959 163.192 20.0161 163.192 18.9091C163.192 17.7988 163.401 16.8542 163.819 16.0753C164.236 15.2964 164.805 14.7031 165.524 14.2955C166.243 13.8845 167.055 13.679 167.96 13.679C168.858 13.679 169.667 13.8845 170.386 14.2955C171.109 14.7031 171.679 15.2964 172.096 16.0753C172.517 16.8542 172.728 17.7988 172.728 18.9091ZM170.545 18.9091C170.545 18.1899 170.438 17.5833 170.222 17.0895C170.01 16.5956 169.71 16.2211 169.322 15.9659C168.934 15.7107 168.48 15.5831 167.96 15.5831C167.44 15.5831 166.986 15.7107 166.598 15.9659C166.21 16.2211 165.908 16.5956 165.693 17.0895C165.481 17.5833 165.375 18.1899 165.375 18.9091C165.375 19.6283 165.481 20.2348 165.693 20.7287C165.908 21.2225 166.21 21.5971 166.598 21.8523C166.986 22.1075 167.44 22.2351 167.96 22.2351C168.48 22.2351 168.934 22.1075 169.322 21.8523C169.71 21.5971 170.01 21.2225 170.222 20.7287C170.438 20.2348 170.545 19.6283 170.545 18.9091ZM174.322 24V13.8182H178.339C179.108 13.8182 179.765 13.9557 180.308 14.2308C180.855 14.5026 181.271 14.8887 181.556 15.3892C181.844 15.8864 181.989 16.4714 181.989 17.1442C181.989 17.8203 181.843 18.402 181.551 18.8892C181.259 19.3731 180.837 19.7443 180.283 20.0028C179.733 20.2614 179.067 20.3906 178.285 20.3906H175.595V18.6605H177.937C178.348 18.6605 178.689 18.6042 178.961 18.4915C179.233 18.3788 179.435 18.2098 179.567 17.9844C179.703 17.759 179.771 17.4789 179.771 17.1442C179.771 16.8061 179.703 16.5211 179.567 16.2891C179.435 16.0571 179.231 15.8814 178.956 15.7621C178.684 15.6394 178.341 15.5781 177.927 15.5781H176.475V24H174.322ZM179.821 19.3665L182.352 24H179.975L177.499 19.3665H179.821Z" fill="#B0EE20"/>
<rect x="1" y="1" width="198" height="35" rx="4" stroke="black" stroke-width="2"/>
</svg>
